# xmcd
#
# Track frame offsets:
#	150
#	18455
#	37516
#
# Disc length: 665 seconds
#
# Revision: 0
# Processed by: cddbd v1.5.2PL0 Copyright (c) Steve Scherf et al.
# Submitted via: audiograbber 1.83.01
#
DISCID=13029703
DTITLE=Sean Paul - Give it up to me (feat.Keyshia Cole)
DYEAR=2006
DGENRE=R&B
TTITLE0=Give it up to me (Single Version)
TTITLE1=Give it up to me (Album Version)
TTITLE2=Get Busy (Sessions @AOL Version)
EXTD=
EXTT0=
EXTT1=
EXTT2=
PLAYORDER=
